<svg width="151" height="135" viewBox="0 0 151 135" fill="none" xmlns="http://www.w3.org/2000/svg">
<rect x="1.5" y="1.5" width="148" height="132" stroke="#F79F37" stroke-width="3"/>
<path d="M133 65.9171C133 58.768 127.189 52.9566 120.047 52.9566C116.562 52.9566 113.403 54.358 111.077 56.612C102.253 50.7761 90.3145 47.0619 77.0935 46.5866L84.3231 23.7085L103.901 28.3194L103.872 28.6036C103.872 34.4493 108.625 39.2023 114.47 39.2023C120.31 39.2023 125.059 34.4493 125.059 28.6036C125.059 22.7579 120.305 18 114.47 18C109.985 18 106.163 20.8126 104.618 24.7571L83.5139 19.7836C82.5925 19.5582 81.6565 20.0923 81.3689 21.0037L73.3056 46.518C59.4704 46.6846 46.9367 50.4282 37.7181 56.4405C35.4074 54.2943 32.341 52.9517 28.948 52.9517C21.8061 52.9517 16 58.768 16 65.9171C16 70.6701 18.5984 74.791 22.4204 77.045C22.1669 78.4268 22.0011 79.8233 22.0011 81.2443C22.0011 100.408 45.4401 116 74.2562 116C103.072 116 126.516 100.408 126.516 81.2443C126.516 79.9017 126.375 78.5787 126.151 77.2753C130.207 75.085 133 70.8465 133 65.9171V65.9171ZM49.033 74.8155C49.033 70.5623 52.4942 67.098 56.7452 67.098C60.9962 67.098 64.4526 70.5623 64.4526 74.8155C64.4526 79.0687 60.9962 82.5281 56.7452 82.5281C52.4942 82.5281 49.033 79.0687 49.033 74.8155V74.8155ZM93.2054 97.6936C89.32 101.579 83.2214 103.471 74.5634 103.471L74.5 103.456L74.4366 103.471C65.7738 103.471 59.6751 101.579 55.7946 97.6936C55.0878 96.988 55.0878 95.8365 55.7946 95.1309C56.5015 94.4204 57.652 94.4204 58.3589 95.1309C61.5276 98.3012 66.7878 99.8398 74.4366 99.8398L74.5 99.8545L74.5634 99.8398C82.2122 99.8398 87.4724 98.2963 90.6411 95.126C91.348 94.4155 92.4985 94.4204 93.2054 95.126C93.9122 95.8365 93.9122 96.9831 93.2054 97.6936ZM92.284 82.5281C88.033 82.5281 84.5766 79.0687 84.5766 74.8155C84.5766 70.5623 88.033 67.098 92.284 67.098C96.535 67.098 99.9914 70.5623 99.9914 74.8155C99.9914 79.0687 96.535 82.5281 92.284 82.5281Z" fill="white"/>
</svg>
