<svg width="8" height="35" viewBox="0 0 8 35" fill="none" xmlns="http://www.w3.org/2000/svg">
<path d="M3.632 22.8161L2.288 10.2401V0.496094H6.512V10.2401L5.168 22.8161H3.632ZM4.4 34.4321C3.088 34.4321 2.16 34.1601 1.616 33.6161C1.104 33.0721 0.848 32.3841 0.848 31.5521V30.6881C0.848 29.8561 1.104 29.1681 1.616 28.6241C2.16 28.0801 3.088 27.8081 4.4 27.8081C5.712 27.8081 6.624 28.0801 7.136 28.6241C7.68 29.1681 7.952 29.8561 7.952 30.6881V31.5521C7.952 32.3841 7.68 33.0721 7.136 33.6161C6.624 34.1601 5.712 34.4321 4.4 34.4321Z" fill="black"/>
</svg>
